<mxfile host="Electron" modified="2024-05-29T22:18:27.841Z" agent="Mozilla/5.0 (Windows NT 10.0; Win64; x64) AppleWebKit/537.36 (KHTML, like Gecko) draw.io/24.4.8 Chrome/124.0.6367.207 Electron/30.0.6 Safari/537.36" etag="l7rvbjEPOdq5NjD6Qrka" version="24.4.8" type="device">
  <diagram id="C5RBs43oDa-KdzZeNtuy" name="PlayFab">
    <mxGraphModel dx="2151" dy="779" grid="1" gridSize="10" guides="1" tooltips="1" connect="1" arrows="1" fold="1" page="0" pageScale="1" pageWidth="827" pageHeight="1169" background="#292929" math="0" shadow="0">
      <root>
        <mxCell id="WIyWlLk6GJQsqaUBKTNV-0" />
        <mxCell id="WIyWlLk6GJQsqaUBKTNV-1" parent="WIyWlLk6GJQsqaUBKTNV-0" />
        <mxCell id="i07Y9Q9IVcWRk9iywD31-2" value="AuthenticationManager" style="shape=umlLifeline;perimeter=lifelinePerimeter;whiteSpace=wrap;html=1;container=0;dropTarget=0;collapsible=0;recursiveResize=0;outlineConnect=0;portConstraint=eastwest;newEdgeStyle={&quot;edgeStyle&quot;:&quot;elbowEdgeStyle&quot;,&quot;elbow&quot;:&quot;vertical&quot;,&quot;curved&quot;:0,&quot;rounded&quot;:0};" vertex="1" parent="WIyWlLk6GJQsqaUBKTNV-1">
          <mxGeometry x="-40" y="40" width="150" height="340" as="geometry" />
        </mxCell>
        <mxCell id="i07Y9Q9IVcWRk9iywD31-3" value="" style="html=1;points=[];perimeter=orthogonalPerimeter;outlineConnect=0;targetShapes=umlLifeline;portConstraint=eastwest;newEdgeStyle={&quot;edgeStyle&quot;:&quot;elbowEdgeStyle&quot;,&quot;elbow&quot;:&quot;vertical&quot;,&quot;curved&quot;:0,&quot;rounded&quot;:0};" vertex="1" parent="i07Y9Q9IVcWRk9iywD31-2">
          <mxGeometry x="70" y="75" width="10" height="190" as="geometry" />
        </mxCell>
        <mxCell id="i07Y9Q9IVcWRk9iywD31-5" value="" style="html=1;points=[];perimeter=orthogonalPerimeter;outlineConnect=0;targetShapes=umlLifeline;portConstraint=eastwest;newEdgeStyle={&quot;edgeStyle&quot;:&quot;elbowEdgeStyle&quot;,&quot;elbow&quot;:&quot;vertical&quot;,&quot;curved&quot;:0,&quot;rounded&quot;:0};" vertex="1" parent="i07Y9Q9IVcWRk9iywD31-2">
          <mxGeometry x="75" y="125" width="10" height="80" as="geometry" />
        </mxCell>
        <mxCell id="i07Y9Q9IVcWRk9iywD31-6" value=":Object" style="shape=umlLifeline;perimeter=lifelinePerimeter;whiteSpace=wrap;html=1;container=0;dropTarget=0;collapsible=0;recursiveResize=0;outlineConnect=0;portConstraint=eastwest;newEdgeStyle={&quot;edgeStyle&quot;:&quot;elbowEdgeStyle&quot;,&quot;elbow&quot;:&quot;vertical&quot;,&quot;curved&quot;:0,&quot;rounded&quot;:0};" vertex="1" parent="WIyWlLk6GJQsqaUBKTNV-1">
          <mxGeometry x="200" y="80" width="100" height="300" as="geometry" />
        </mxCell>
        <mxCell id="i07Y9Q9IVcWRk9iywD31-7" value="" style="html=1;points=[];perimeter=orthogonalPerimeter;outlineConnect=0;targetShapes=umlLifeline;portConstraint=eastwest;newEdgeStyle={&quot;edgeStyle&quot;:&quot;elbowEdgeStyle&quot;,&quot;elbow&quot;:&quot;vertical&quot;,&quot;curved&quot;:0,&quot;rounded&quot;:0};" vertex="1" parent="i07Y9Q9IVcWRk9iywD31-6">
          <mxGeometry x="45" y="80" width="10" height="170" as="geometry" />
        </mxCell>
        <mxCell id="i07Y9Q9IVcWRk9iywD31-8" value="dispatch" style="html=1;verticalAlign=bottom;endArrow=block;edgeStyle=elbowEdgeStyle;elbow=vertical;curved=0;rounded=0;" edge="1" parent="WIyWlLk6GJQsqaUBKTNV-1" source="i07Y9Q9IVcWRk9iywD31-3" target="i07Y9Q9IVcWRk9iywD31-7">
          <mxGeometry relative="1" as="geometry">
            <mxPoint x="175" y="170" as="sourcePoint" />
            <Array as="points">
              <mxPoint x="160" y="160" />
            </Array>
          </mxGeometry>
        </mxCell>
        <mxCell id="i07Y9Q9IVcWRk9iywD31-9" value="return" style="html=1;verticalAlign=bottom;endArrow=open;dashed=1;endSize=8;edgeStyle=elbowEdgeStyle;elbow=vertical;curved=0;rounded=0;" edge="1" parent="WIyWlLk6GJQsqaUBKTNV-1" source="i07Y9Q9IVcWRk9iywD31-7" target="i07Y9Q9IVcWRk9iywD31-3">
          <mxGeometry relative="1" as="geometry">
            <mxPoint x="175" y="245" as="targetPoint" />
            <Array as="points">
              <mxPoint x="170" y="320" />
            </Array>
          </mxGeometry>
        </mxCell>
        <mxCell id="i07Y9Q9IVcWRk9iywD31-10" value="callback" style="html=1;verticalAlign=bottom;endArrow=block;edgeStyle=elbowEdgeStyle;elbow=vertical;curved=0;rounded=0;" edge="1" parent="WIyWlLk6GJQsqaUBKTNV-1" source="i07Y9Q9IVcWRk9iywD31-7" target="i07Y9Q9IVcWRk9iywD31-5">
          <mxGeometry relative="1" as="geometry">
            <mxPoint x="155" y="200" as="sourcePoint" />
            <Array as="points">
              <mxPoint x="170" y="200" />
            </Array>
          </mxGeometry>
        </mxCell>
        <mxCell id="i07Y9Q9IVcWRk9iywD31-11" value="return" style="html=1;verticalAlign=bottom;endArrow=open;dashed=1;endSize=8;edgeStyle=elbowEdgeStyle;elbow=vertical;curved=0;rounded=0;" edge="1" parent="WIyWlLk6GJQsqaUBKTNV-1" source="i07Y9Q9IVcWRk9iywD31-5" target="i07Y9Q9IVcWRk9iywD31-7">
          <mxGeometry relative="1" as="geometry">
            <mxPoint x="155" y="275" as="targetPoint" />
            <Array as="points">
              <mxPoint x="160" y="270" />
            </Array>
          </mxGeometry>
        </mxCell>
        <mxCell id="i07Y9Q9IVcWRk9iywD31-12" value="Actor" style="shape=umlActor;verticalLabelPosition=bottom;verticalAlign=top;html=1;outlineConnect=0;" vertex="1" parent="WIyWlLk6GJQsqaUBKTNV-1">
          <mxGeometry x="-130" y="90" width="30" height="60" as="geometry" />
        </mxCell>
        <mxCell id="i07Y9Q9IVcWRk9iywD31-4" value="dispatch" style="html=1;verticalAlign=bottom;startArrow=oval;endArrow=block;startSize=8;edgeStyle=elbowEdgeStyle;elbow=vertical;curved=0;rounded=0;exitX=1;exitY=0.3333333333333333;exitDx=0;exitDy=0;exitPerimeter=0;" edge="1" parent="WIyWlLk6GJQsqaUBKTNV-1" target="i07Y9Q9IVcWRk9iywD31-3" source="i07Y9Q9IVcWRk9iywD31-12">
          <mxGeometry relative="1" as="geometry">
            <mxPoint x="-40" y="113" as="sourcePoint" />
          </mxGeometry>
        </mxCell>
      </root>
    </mxGraphModel>
  </diagram>
</mxfile>
